<svg width="1060" height="182" viewBox="0 0 1060 182" fill="none" xmlns="http://www.w3.org/2000/svg">
<g clip-path="url(#clip0_1721_116991)">
<path d="M292.252 42.2109H343.808C367.908 42.2109 381.941 54.4462 381.941 72.1874C381.941 96.0493 361.807 105.834 336.49 105.834H316.965L310.864 135.814H272.423L292.252 42.2109ZM321.843 82.8933H331.3C338.622 82.8933 343.198 78.9168 343.198 72.4963C343.198 68.214 341.062 64.5403 334.046 64.5403H325.809L321.843 82.8933Z" fill="#03729E"/>
<path d="M409.547 42.2109H448.595L434.257 111.34H480.017L470.865 135.811H389.718L409.547 42.2109Z" fill="#03729E"/>
<path d="M24.1001 10.0938H118.365L151.007 49.2467L196.767 10.0938H290.422L191.581 96.9643L264.186 182H170.531L137.279 143.458L93.6549 182H0L96.7056 96.9643L24.1001 10.0938Z" fill="#03729E"/>
<path d="M628.528 135.811L648.052 42.208H692.592C697.476 60.5609 701.744 79.8315 704.795 93.2904H705.71C706.018 86.2551 709.371 69.4315 712.421 53.8315L714.862 42.208H749.337L729.508 135.811H687.104C683.748 121.435 677.342 92.9875 674.291 77.9993H673.681C672.766 89.0111 669.105 106.14 665.749 122.352L663.004 135.811H628.528Z" fill="#03729E"/>
<path d="M848.941 100.635H804.706L802.568 110.729H853.517L844.057 135.505H759.554L779.383 41.9053H863.581L858.395 66.3759H812.025L809.889 76.1641H854.124L848.941 100.635Z" fill="#03729E"/>
<path d="M905.784 25.082H955.811L932.016 135.506H891.138L909.442 51.9997H895.107L905.784 25.082Z" fill="#03729E"/>
<path d="M592.223 42.5176H540.667L490.029 136.118H529.99L537.003 122.047H566.293L567.51 136.118H606.253L592.223 42.5176ZM548.602 97.5764C552.568 88.7058 558.059 75.5529 561.109 66.9882H562.025C562.635 75.8557 563.245 89.9293 564.16 97.5764H548.602Z" fill="#03729E"/>
<path d="M906.083 25.0361H955.808L932.013 135.457H891.138L909.442 51.9507H895.104L906.083 25.0361Z" fill="#03729E"/>
<path d="M1042.05 135.505L964.355 135.456L969.447 111.83C1012.79 78.1215 1023.19 64.2344 1023.19 57.2083C1023.19 51.3935 1020.54 49.7173 1012.76 49.4542C1004.88 49.1911 994.841 51.5311 980.917 58.6031L987.403 28.4921C1001.96 23.0137 1010.98 23.133 1019.67 23.133C1042.11 23.133 1056.81 29.8104 1056 51.6963C1055.04 77.5311 1036.92 91.6782 1013.5 110.478H1051.5L1042.05 135.505Z" fill="#03729E"/>
<path d="M296.218 38.2354H347.774C371.871 38.2354 385.907 50.4706 385.907 68.2118C385.907 92.0707 365.77 101.859 340.452 101.859H320.928L314.827 131.835H276.389L296.218 38.2354ZM325.809 78.9177H335.266C342.588 78.9177 347.164 74.9412 347.164 68.5208C347.164 64.2384 345.028 60.5648 338.012 60.5648H329.775L325.809 78.9177Z" fill="#0FB5E8"/>
<path d="M413.818 38.2354H452.869L438.223 107.059H483.982L474.83 131.835H393.988L413.818 38.2354Z" fill="#0FB5E8"/>
<path d="M35.6923 0H129.957L162.904 39.1529L208.359 0H302.014L203.173 86.8706L275.778 171.906H182.123L148.566 133.365L105.247 171.906H11.2871L107.993 86.8706L35.6923 0Z" fill="#0FB5E8"/>
<path d="M632.494 131.835L652.323 38.2354H696.866C701.747 56.5883 706.018 75.8589 709.068 89.3177H709.984C710.289 82.2824 713.644 65.4589 716.695 49.8589L719.136 38.2354H753.608L733.779 131.835H691.378C688.019 117.462 681.616 89.0118 678.565 74.0266H677.955C677.04 85.0384 673.379 102.168 670.023 118.38L667.278 131.835H632.494Z" fill="#0FB5E8"/>
<path d="M852.903 96.6583H808.669L806.534 106.752H857.479L848.022 131.529H763.522L783.352 37.623H867.547L862.669 62.3995H815.991L813.858 72.1878H858.395L852.903 96.6583Z" fill="#0FB5E8"/>
<path d="M910.052 21.1055H959.777L935.982 131.529H895.106L913.41 48.0231H899.069L910.052 21.1055Z" fill="#0FB5E8"/>
<path d="M596.494 38.541H544.938L494.297 132.144H534.26L541.277 118.07H570.563L571.783 132.144H610.527L596.494 38.541ZM552.869 93.5998C556.835 84.7323 562.329 71.5794 565.38 63.0116H566.295C566.905 71.8822 567.512 85.9528 568.431 93.5998H552.869Z" fill="#0FB5E8"/>
<path d="M1046.02 131.578L968.324 131.529L973.416 107.903C1016.75 74.1918 1027.15 60.3078 1027.15 53.2786C1027.15 47.4638 1024.5 45.7876 1016.73 45.5245C1008.84 45.2615 998.806 47.6014 984.883 54.6735L991.369 24.5624C1005.92 19.084 1014.94 19.2033 1023.64 19.2033C1046.07 19.2033 1060.78 25.8807 1059.96 47.7666C1059 73.6015 1040.89 87.7485 1017.46 106.548H1055.46L1046.02 131.578Z" fill="#0FB5E8"/>
</g>
<defs>
<clipPath id="clip0_1721_116991">
<rect width="1060" height="182" fill="white"/>
</clipPath>
</defs>
</svg>
